# xmcd
#
# Track frame offsets: 
#        150
#        15004
#        31929
#        53867
#        76525
#        96996
#        117513
#        139368
#        160134
#        174451
#        196473
#        210919
#
# Disc length: 3060 seconds
#
# Revision: 0
# Processed by: cddbd v1.5.2PL0 Copyright (c) Steve Scherf et al.
# Submitted via: ExactAudioCopyFreeDBPlugin 1.0
#
DISCID=900bf20c
DTITLE=Various Artist - The Best Of '70 - Volume 2
DYEAR=1900
DGENRE=Pop
TTITLE0=George McCrae - Rock Your Baby
TTITLE1=The Village People - Y.M.C.A.
TTITLE2=Earth, Wind and Fire - Boogie Wonderland
TTITLE3=Osibisa - Sunshine Day
TTITLE4=Sylvester - You Make Me Feel (Mighty Real)
TTITLE5=Carol Douglas - Doctor's Order
TTITLE6=Gloria Gaynor - I Will Survive
TTITLE7=Revanche - You Get High In N.Y.C.
TTITLE8=The Bombers - Everybody (Get Dancin')
TTITLE9=Macho - I'm a Man
TTITLE10=KC and The Sunshine Band - Shake Shake Shake
TTITLE11=Peter Jacques Band - Fire Night Dance
EXTD=
EXTT0=
EXTT1=
EXTT2=
EXTT3=
EXTT4=
EXTT5=
EXTT6=
EXTT7=
EXTT8=
EXTT9=
EXTT10=
EXTT11=
PLAYORDER=
